<svg id="Layer_1" viewBox="0 0 24 24" xmlns="http://www.w3.org/2000/svg" data-name="Layer 1" fill="currentColor"><path d="m10.5 14v-1.184c.347-.124.661-.309.936-.543l1.028.594 1-1.732-1.019-.589c.033-.177.055-.359.055-.545s-.022-.368-.055-.545l1.019-.589-1-1.732-1.028.594c-.275-.235-.589-.419-.936-.543v-1.184h-2v1.184c-.347.124-.661.309-.936.543l-1.028-.594-1 1.732 1.019.589c-.033.177-.055.359-.055.545s.022.368.055.545l-1.019.589 1 1.732 1.028-.594c.275.235.589.419.936.543v1.184zm-1-5c.552 0 1 .448 1 1s-.448 1-1 1-1-.448-1-1 .448-1 1-1zm12.5 6v-12h-20v12h-2v3c0 1.654 1.346 3 3 3h18c1.654 0 3-1.346 3-3v-3zm-18-10h16v10h-4.914l-1 1h-4.172l-1-1h-4.914zm18 13c0 .552-.448 1-1 1h-18c-.552 0-1-.448-1-1v-1h6.086l1 1h5.828l1-1h6.086zm-4-9h-3v-2h3zm0 4h-3v-2h3z"/></svg>
